<?xml version="1.0" standalone="no"?>
<!DOCTYPE svg PUBLIC "-//W3C//DTD SVG 20010904//EN"
 "http://www.w3.org/TR/2001/REC-SVG-20010904/DTD/svg10.dtd">
<svg version="1.0" xmlns="http://www.w3.org/2000/svg"
 width="720.000000pt" height="246.000000pt" viewBox="0 0 720.000000 246.000000"
 preserveAspectRatio="xMidYMid meet">

<g transform="translate(0.000000,246.000000) scale(0.100000,-0.100000)"
fill="#000000" stroke="none">
<path d="M1240 2101 c0 -30 -5 -43 -20 -51 -16 -9 -20 -21 -20 -65 0 -31 -4
-55 -10 -55 -7 0 -10 -42 -8 -117 l3 -118 75 0 75 0 3 113 c2 93 0 113 -13
118 -11 5 -15 21 -15 60 0 35 -5 56 -14 61 -8 4 -16 26 -18 48 -2 28 -8 41
-20 43 -15 3 -18 -4 -18 -37z"/>
<path d="M1467 2133 c-4 -3 -7 -23 -7 -44 0 -23 -5 -39 -15 -43 -11 -4 -15
-21 -15 -60 0 -39 -4 -55 -15 -60 -12 -4 -15 -26 -15 -108 0 -57 4 -109 9
-116 5 -9 28 -12 77 -10 l69 3 3 118 c2 75 -1 117 -8 117 -6 0 -10 24 -10 55
0 40 -4 57 -15 61 -8 4 -15 18 -15 34 0 50 -21 76 -43 53z"/>
<path d="M1697 2133 c-4 -3 -7 -24 -7 -45 0 -27 -4 -38 -15 -38 -11 0 -15 -13
-15 -54 0 -36 -5 -58 -15 -66 -13 -11 -15 -34 -13 -124 l3 -111 75 0 75 0 3
114 c2 95 0 116 -13 123 -10 6 -15 25 -15 62 0 39 -4 55 -15 60 -10 3 -15 19
-15 46 0 38 -14 52 -33 33z"/>
<path d="M1122 1635 c-59 -26 -62 -47 -62 -398 0 -173 3 -328 6 -346 4 -17 18
-42 32 -56 l25 -25 358 0 357 0 31 26 31 26 0 360 c0 238 -4 366 -11 380 -24
44 -58 48 -406 48 -262 -1 -335 -4 -361 -15z m676 -399 c2 -212 -1 -303 -9
-312 -9 -11 -68 -14 -299 -14 -159 0 -295 3 -304 6 -14 5 -16 42 -16 308 0
167 3 306 7 309 4 4 144 6 312 5 l306 -3 3 -299z"/>
<path d="M1220 1225 l0 -265 265 0 265 0 0 265 0 265 -265 0 -265 0 0 -265z"/>
<path d="M4033 1552 c-58 -16 -66 -27 -28 -36 l25 -6 0 -295 0 -295 -25 -6
c-52 -13 -22 -24 65 -24 89 0 119 12 60 24 l-30 6 0 111 c0 101 2 116 25 154
30 52 64 75 108 75 63 0 72 -22 75 -184 3 -120 1 -144 -12 -155 -29 -24 -16
-31 59 -31 43 0 75 4 75 10 0 6 -9 10 -20 10 -33 0 -40 33 -40 185 0 112 -4
153 -15 176 -39 74 -165 60 -226 -24 l-29 -40 0 181 c0 100 -3 181 -7 181 -5
-1 -32 -8 -60 -17z"/>
<path d="M4973 1551 c-54 -16 -69 -31 -33 -31 10 0 24 -9 30 -19 6 -12 10
-122 10 -286 0 -164 -4 -274 -10 -286 -6 -10 -20 -19 -30 -19 -11 0 -20 -4
-20 -10 0 -6 37 -10 90 -10 53 0 90 4 90 10 0 6 -8 10 -18 10 -41 0 -42 12
-42 342 0 175 -3 317 -7 317 -5 -1 -32 -9 -60 -18z"/>
<path d="M780 1520 c0 -5 -25 -10 -55 -10 -44 0 -56 -4 -65 -20 -8 -15 -21
-20 -51 -20 -33 0 -40 -3 -37 -17 2 -13 15 -19 43 -21 22 -2 44 -10 48 -18 5
-9 26 -14 61 -14 39 0 55 -4 60 -15 5 -13 25 -15 118 -13 l113 3 3 78 3 77
-121 0 c-73 0 -120 -4 -120 -10z"/>
<path d="M1952 1453 l3 -78 113 -3 c93 -2 113 0 118 13 5 11 21 15 60 15 35 0
56 5 61 14 4 8 26 16 48 18 28 2 41 8 43 21 3 14 -4 17 -37 17 -30 0 -43 5
-51 20 -9 16 -21 20 -65 20 -30 0 -55 5 -55 10 0 6 -47 10 -120 10 l-121 0 3
-77z"/>
<path d="M2580 1498 c0 -13 -3 -40 -6 -60 -7 -43 11 -53 25 -15 5 12 18 30 28
40 26 22 112 33 141 18 22 -12 22 -15 22 -285 0 -294 1 -286 -51 -286 -10 0
-19 -4 -19 -10 0 -6 43 -10 110 -10 67 0 110 4 110 10 0 6 -9 10 -19 10 -52 0
-51 -8 -51 286 0 270 0 273 22 285 52 28 157 -10 174 -63 3 -10 10 -18 15 -18
10 0 12 43 3 89 l-6 31 -249 0 -249 0 0 -22z"/>
<path d="M3255 1308 c-144 -50 -204 -255 -108 -369 34 -40 74 -59 125 -59 69
0 120 19 162 61 47 47 42 60 -9 25 -72 -49 -151 -46 -203 7 -33 34 -62 93 -62
126 0 27 19 31 170 34 l125 2 3 40 c7 99 -100 169 -203 133z m89 -49 c27 -13
52 -60 43 -83 -5 -11 -30 -15 -111 -18 -101 -3 -106 -2 -106 17 1 29 24 66 51
81 30 16 90 18 123 3z"/>
<path d="M3699 1307 c-82 -31 -136 -95 -159 -189 -24 -94 44 -218 127 -234 80
-15 196 21 229 71 22 33 10 44 -19 17 -51 -47 -142 -57 -197 -19 -48 32 -80
98 -80 165 0 93 34 139 117 156 42 9 109 -9 127 -35 8 -12 19 -18 25 -14 14 8
15 72 1 80 -22 13 -136 15 -171 2z"/>
<path d="M4658 1306 c-58 -21 -87 -43 -119 -94 -56 -88 -61 -167 -16 -247 31
-55 79 -85 136 -85 71 0 120 18 165 60 46 43 43 66 -4 27 -32 -27 -103 -44
-143 -33 -56 14 -108 81 -122 157 -9 46 10 115 40 144 50 51 165 53 199 3 19
-26 22 -24 29 24 5 36 4 38 -31 48 -49 13 -89 12 -134 -4z"/>
<path d="M5315 1306 c-43 -16 -120 -90 -110 -106 3 -5 14 -1 25 10 31 31 79
52 127 53 54 2 83 -26 83 -79 0 -27 -4 -34 -20 -34 -32 0 -125 -39 -169 -70
-95 -69 -95 -181 1 -197 58 -9 106 5 149 44 l39 35 0 -36 0 -36 65 0 c67 0 87
13 36 23 l-29 6 -4 170 c-3 169 -3 171 -30 197 -32 33 -104 41 -163 20z m123
-248 l-3 -63 -49 -32 c-56 -38 -97 -42 -127 -12 -37 37 7 104 96 145 81 37 86
35 83 -38z"/>
<path d="M5853 1299 c-24 -12 -52 -37 -65 -57 l-23 -37 -3 53 c-2 28 -4 52 -5
52 -2 0 -27 -9 -57 -19 -59 -21 -74 -38 -38 -43 23 -3 23 -3 23 -168 0 -163 0
-165 -22 -168 -13 -2 -23 -8 -23 -13 0 -5 41 -9 90 -9 53 0 90 4 90 10 0 6 -8
10 -18 10 -35 0 -42 21 -42 122 0 78 4 107 20 137 39 78 116 113 166 77 17
-13 19 -30 22 -170 3 -135 1 -157 -12 -162 -36 -14 -11 -24 59 -24 41 0 75 4
75 9 0 5 -10 11 -22 13 -23 3 -23 6 -28 168 -4 137 -8 171 -23 193 -33 50 -95
60 -164 26z"/>
<path d="M6302 1311 c-86 -15 -131 -79 -99 -146 12 -26 34 -42 103 -76 84 -43
124 -77 124 -106 0 -8 -11 -25 -25 -38 -45 -46 -159 -24 -194 37 -19 32 -31
36 -31 9 0 -10 -3 -32 -6 -48 -5 -28 -3 -31 35 -47 97 -38 219 -7 254 66 37
76 -5 144 -110 179 -68 22 -113 56 -113 84 0 27 38 55 76 55 41 0 91 -26 100
-52 10 -33 24 -18 24 26 0 34 -4 46 -17 50 -41 11 -81 13 -121 7z"/>
<path d="M784 1295 c-5 -11 -21 -15 -60 -15 -35 0 -56 -5 -61 -14 -4 -8 -26
-16 -48 -18 -28 -2 -41 -8 -43 -20 -3 -15 4 -18 37 -18 30 0 43 -5 51 -20 9
-16 21 -20 65 -20 31 0 55 -4 55 -10 0 -7 42 -10 118 -8 l117 3 0 75 0 75
-113 3 c-93 2 -113 0 -118 -13z"/>
<path d="M1957 1303 c-4 -3 -7 -39 -7 -80 l0 -73 120 0 c73 0 120 4 120 10 0
6 25 10 55 10 44 0 56 4 65 20 8 15 21 20 51 20 33 0 40 3 37 18 -2 12 -15 18
-43 20 -22 2 -44 10 -48 18 -5 9 -26 14 -61 14 -39 0 -55 4 -60 15 -4 12 -27
15 -114 15 -60 0 -112 -3 -115 -7z"/>
<path d="M784 1065 c-5 -11 -21 -15 -65 -15 -45 0 -59 -3 -59 -14 0 -10 -14
-16 -42 -18 -30 -2 -43 -8 -43 -18 0 -10 13 -16 43 -18 28 -2 42 -8 42 -18 0
-10 14 -14 55 -14 38 0 57 -4 63 -15 7 -13 28 -15 123 -13 l114 3 0 75 0 75
-113 3 c-93 2 -113 0 -118 -13z"/>
<path d="M1954 1066 c-3 -7 -4 -42 -2 -77 l3 -64 114 -3 c95 -2 116 0 123 13
6 11 25 15 63 15 41 0 55 4 55 14 0 10 14 16 43 18 57 4 59 32 2 36 -22 2 -44
10 -48 18 -5 9 -26 14 -61 14 -39 0 -55 4 -60 15 -8 21 -224 22 -232 1z"/>
<path d="M1180 640 c0 -73 4 -120 10 -120 6 0 10 -25 10 -55 0 -43 4 -56 19
-65 13 -7 21 -23 23 -48 4 -53 32 -51 36 3 2 22 10 44 18 48 9 5 14 26 14 61
0 39 4 55 15 60 13 5 15 25 13 118 l-3 113 -77 3 -78 3 0 -121z"/>
<path d="M1407 753 c-4 -3 -7 -55 -7 -115 0 -87 3 -110 15 -114 11 -5 15 -21
15 -60 0 -39 4 -56 15 -60 10 -4 15 -20 15 -45 0 -27 5 -42 16 -46 20 -8 34
13 34 53 0 19 6 34 15 38 11 4 15 21 15 61 0 30 5 55 10 55 6 0 10 47 10 120
l0 120 -73 0 c-41 0 -77 -3 -80 -7z"/>
<path d="M1637 754 c-4 -4 -7 -56 -7 -116 0 -87 3 -110 15 -114 11 -5 15 -21
15 -60 0 -35 5 -56 14 -61 8 -4 16 -26 18 -48 4 -57 32 -55 36 3 2 28 8 42 18
42 10 0 14 14 14 55 0 38 4 57 15 63 13 7 15 28 13 123 l-3 114 -70 3 c-39 1
-74 0 -78 -4z"/>
</g>
</svg>
